<svg id="Wordmark" xmlns="http://www.w3.org/2000/svg" xmlns:xlink="http://www.w3.org/1999/xlink" viewBox="0 0 477.5 261.5" style="enable-background:new 0 0 477.5 261.5;"><style>.st0{fill:#FAFDFD;}</style><g><g><path class="st0" d="M23.3 78.5H0V61.7h64.3v16.8H41v69.7H23.2L23.3 78.5z"/><path class="st0" d="M75.1 61.7h53.8v16.8H92.7v17.8h28.9v16.8H92.7v18.3h36.2v16.8H75.1V61.7z"/><path class="st0" d="M180.6 60.2c17.7.0 32.5 9.1 40 23l-15.3 8.5c-5.1-8.9-13.4-14.5-24.6-14.5-15.1.0-26.9 12.5-26.9 27.7s11.8 27.7 26.9 27.7c11.2.0 19.5-5.6 24.6-14.5l15.3 8.5c-7.4 13.9-22.3 23-40 23-24.7.0-44.7-20-44.7-44.7s19.9-44.7 44.7-44.7z"/><path class="st0" d="M233.1 61.7h17.7v34.5h37.5V61.7H306v86.5h-17.7V113h-37.5v35.2h-17.7V61.7z"/><path class="st0" d="M62 257l-44.3-56.4V257H0v-86.5h15.2l44.3 56.4v-56.4h17.7V257H62z"/><path class="st0" d="M121.8 170.5h15.8L175 257h-18.5l-8.4-19.7h-36.8l-8.4 19.7H84.6l37.2-86.5zm19.8 51.3-12-28.1-11.9 28.1h23.9z"/><path class="st0" d="M189.8 187.3h-23v-16.8h64.1v16.8h-23.3V257h-17.8V187.3z"/><path class="st0" d="M241.6 170.5h17.7V257h-17.7V170.5z"/><path class="st0" d="M315.9 258.5c-24.7.0-44.7-20-44.7-44.7s20-44.7 44.7-44.7 44.7 20 44.7 44.7S340.6 258.5 315.9 258.5zm0-17.1c15.1.0 26.9-12.5 26.9-27.7S331 186 315.9 186 289 198.5 289 213.7s11.8 27.7 26.9 27.7z"/><path class="st0" d="M434.6 257l-44.3-56.4V257h-17.7v-86.5h15.2l44.3 56.4v-56.4h17.7V257H434.6z"/></g><g><path class="st0" d="M477.1 82.5c.3-2.5.4-5 .4-7.6s-.1-5.1-.4-7.6h-36.2l33.4-13.9c-1.5-4.9-3.4-9.6-5.8-14.1l-33.4 13.9 25.6-25.6c-3.2-3.9-6.8-7.6-10.8-10.8l-25.6 25.6L438.2 9c-4.4-2.4-9.2-4.4-14.1-5.8l-13.9 33.4V.4c-2.5-.3-5-.4-7.6-.4s-5.1.1-7.6.4v36.2L381.1 3.2c-4.9 1.5-9.6 3.4-14.1 5.8l13.9 33.4-25.6-25.6c-3.9 3.2-7.6 6.8-10.8 10.8l25.6 25.6-33.4-13.9c-2.4 4.4-4.4 9.2-5.8 14.1l33.4 13.9h-36.2c-.3 2.5-.4 5-.4 7.6s.1 5.1.4 7.6h36.2l-33.4 13.9c1.5 4.9 3.4 9.6 5.8 14.1l33.4-13.9-25.5 25.6c3.2 3.9 6.8 7.6 10.8 10.8l25.6-25.6-13.9 33.4c4.4 2.4 9.2 4.4 14.1 5.8l13.9-33.4v36.2c2.5.3 5 .4 7.6.4s5.1-.1 7.6-.4v-36.2l13.9 33.4c4.9-1.5 9.6-3.4 14.1-5.8l-13.9-33.4L450 133c3.9-3.2 7.6-6.8 10.8-10.8l-25.6-25.6 33.4 13.9c2.4-4.4 4.4-9.2 5.8-14.1L441 82.5h36.1zm-74.5 19.8c-15.2.0-27.5-12.3-27.5-27.5s12.3-27.5 27.5-27.5 27.5 12.3 27.5 27.5c0 15.3-12.3 27.5-27.5 27.5z"/></g></g></svg>