<svg xmlns="http://www.w3.org/2000/svg" xmlns:xlink="http://www.w3.org/1999/xlink" id="Wordmark" viewBox="0 0 1090 197.1" style="enable-background:new 0 0 1090 197.1;"><style>.st0{fill:#002736;} .st1{fill:#FE5E00;}</style><g><g><path class="st0" d="M257.1 72.1h-23V55.3h64.1v16.8h-23.3v69.7h-17.8V72.1z"/><path class="st0" d="M308.8 55.3h53.8v16.8h-36.2v17.8h28.9v16.8h-28.9V125h36.2v16.8h-53.8V55.3z"/><path class="st0" d="M414.3 53.8c17.7.0 32.5 9.1 40 23l-15.4 8.5c-5.1-8.9-13.4-14.5-24.6-14.5-15.1.0-26.9 12.5-26.9 27.7s11.8 27.7 26.9 27.7c11.2.0 19.5-5.6 24.6-14.5l15.4 8.5c-7.4 13.9-22.3 23-40 23-24.7.0-44.7-20-44.7-44.7.0-24.7 20-44.7 44.7-44.7z"/><path class="st0" d="M466.8 55.3h17.7v34.5H522V55.3h17.7v86.5H522v-35.2h-37.5v35.2h-17.7V55.3z"/><path class="st0" d="M648.4 141.8 604 85.4v56.4h-17.7V55.3h15.2l44.3 56.4V55.3h17.7v86.5H648.4z"/><path class="st0" d="M708.2 55.3h15.7l37.4 86.5h-18.5l-8.4-19.7h-36.8l-8.4 19.7h-18.3L708.2 55.3zM727.9 106.6 716 78.5l-12 28.1h23.9z"/><path class="st0" d="M776.2 72.1h-23V55.3h64.1v16.8H794v69.7h-17.8V72.1z"/><path class="st0" d="M827.9 55.3h17.7v86.5h-17.7V55.3z"/><path class="st0" d="M902.2 143.3c-24.7.0-44.7-20-44.7-44.7s20-44.7 44.7-44.7 44.7 20 44.7 44.7C947 123.3 927 143.3 902.2 143.3zm0-17.1c15.1.0 26.9-12.5 26.9-27.7s-11.8-27.7-26.9-27.7-26.9 12.5-26.9 27.7 11.8 27.7 26.9 27.7z"/><path class="st0" d="M1020.9 141.8l-44.3-56.4v56.4h-17.7V55.3h15.2l44.3 56.4V55.3h17.7v86.5H1020.9z"/></g><g><path class="st1" d="M186.5 106c.3-2.5.4-5 .4-7.6s-.1-5.1-.4-7.6h-36.2l33.4-13.9c-1.5-4.9-3.4-9.6-5.8-14.1l-33.4 13.9 25.6-25.6c-3.2-3.9-6.8-7.6-10.8-10.8l-25.6 25.6 13.9-33.4c-4.4-2.4-9.2-4.4-14.1-5.8l-13.9 33.4V23.9c-2.5-.3-5-.4-7.6-.4s-5.1.1-7.6.4v36.2L90.6 26.6c-4.9 1.5-9.6 3.4-14.1 5.8l13.9 33.4L64.8 40.3c-3.9 3.2-7.6 6.8-10.8 10.8l25.6 25.6L46.1 62.8c-2.4 4.4-4.4 9.2-5.8 14.1l33.4 13.9H37.5c-.3 2.5-.4 5-.4 7.6s.1 5.1.4 7.6h36.2l-33.4 13.9c1.5 4.9 3.4 9.6 5.8 14.1l33.4-13.9L54 145.7c3.2 3.9 6.8 7.6 10.8 10.8l25.6-25.6-13.9 33.4c4.4 2.4 9.2 4.4 14.1 5.8l13.9-33.4v36.2c2.5.3 5 .4 7.6.4s5.1-.1 7.6-.4v-36.2l13.9 33.4c4.9-1.5 9.6-3.4 14.1-5.8l-13.9-33.4 25.6 25.6c3.9-3.2 7.6-6.8 10.8-10.8l-25.6-25.6L178 134c2.4-4.4 4.4-9.2 5.8-14.1L150.3 106h36.2zM112 125.8c-15.2.0-27.5-12.3-27.5-27.5S96.8 70.8 112 70.8s27.5 12.3 27.5 27.5c0 15.3-12.3 27.5-27.5 27.5z"/></g></g></svg>